<svg viewBox="0 0 14 14" xmlns="http://www.w3.org/2000/svg" xmlns:xlink="http://www.w3.org/1999/xlink" width="14.000000" height="14.000000" fill="none" customFrame="#000000">
	<g id="vuesax/bold/add-circle">
		<g id="add-circle">
			<path id="Vector" d="M6.99984 1.16663C3.78567 1.16663 1.1665 3.78579 1.1665 6.99996C1.1665 10.2141 3.78567 12.8333 6.99984 12.8333C10.214 12.8333 12.8332 10.2141 12.8332 6.99996C12.8332 3.78579 10.214 1.16663 6.99984 1.16663ZM9.33317 7.43746L7.43734 7.43746L7.43734 9.33329C7.43734 9.57246 7.239 9.77079 6.99984 9.77079C6.76067 9.77079 6.56234 9.57246 6.56234 9.33329L6.56234 7.43746L4.6665 7.43746C4.42734 7.43746 4.229 7.23913 4.229 6.99996C4.229 6.76079 4.42734 6.56246 4.6665 6.56246L6.56234 6.56246L6.56234 4.66663C6.56234 4.42746 6.76067 4.22913 6.99984 4.22913C7.239 4.22913 7.43734 4.42746 7.43734 4.66663L7.43734 6.56246L9.33317 6.56246C9.57234 6.56246 9.77067 6.76079 9.77067 6.99996C9.77067 7.23913 9.57234 7.43746 9.33317 7.43746Z" fill="rgb(0,0,0)" fill-rule="nonzero" />
			<path id="Vector" opacity="0" transform="matrix(-1,-1.22465e-16,1.22465e-16,-1,14,14)" />
		</g>
	</g>
</svg>
